<svg width="1440" height="1007" viewBox="0 0 1440 1007" fill="none" xmlns="http://www.w3.org/2000/svg">
<g filter="url(#filter0_f_1_1059)">
<ellipse cx="719.531" cy="415.531" rx="379.5" ry="54" transform="rotate(-45 719.531 415.531)" fill="white" fill-opacity="0.4"/>
</g>
<path d="M406.896 295.533H-698V293.514H406.576L497.361 203.422H868V205.441H497.681L406.896 295.533Z" fill="white" fill-opacity="0.07"/>
<path d="M499.23 347.245H-832V345.208H498.752L603.203 240.589L604 242.371L499.23 347.245Z" fill="white" fill-opacity="0.07"/>
<path d="M635.939 387.645H-563V385.612H635.62L714.582 306.845H947V308.878H714.901L635.939 387.645Z" fill="white" fill-opacity="0.07"/>
<path d="M866.159 596.916H524.353L524.194 596.661L400.104 472.103H-788V470.061H400.423L400.583 470.316L524.672 594.874H865.68L969.354 490.735H1400V492.777H969.673L866.159 596.916Z" fill="white" fill-opacity="0.07"/>
<path d="M874.337 673.675H526.648L526.489 673.421L384.702 531.881H-459V529.852H385.021H385.181L527.127 671.646H874.018L998.26 547.608H1365.57H1365.73L1430 611.783L1429.36 613.558L1365.25 549.637H998.579L874.337 673.675Z" fill="white" fill-opacity="0.07"/>
<path d="M838.482 541.164H571.85L571.69 540.911L459.424 429.278H-687V427.257H459.743L459.902 427.51L572.169 539.143H838.163L931.931 445.947H1339.22L1439.36 346.437L1440 348.205L1339.69 447.967H932.25L838.482 541.164Z" fill="white" fill-opacity="0.07"/>
<path d="M819.227 478.948H595.651H595.492L554 437.538L554.638 435.771L596.13 476.928H818.748L896.784 399.664H1282.82L1349.36 333.509L1350 335.276L1283.13 401.684H897.103L819.227 478.948Z" fill="white" fill-opacity="0.07"/>
<path d="M590.638 347.245L590 345.465L686.896 248.59H1016.47H1016.63L1066.67 298.935H1209.31L1306.36 201.806L1307 203.331L1209.63 300.969H1066.35L1066.19 300.715L1015.99 250.625H687.215L590.638 347.245Z" fill="white" fill-opacity="0.07"/>
<path d="M759.997 433.7H646V431.668H759.519L832.541 358.511H1270.35L1347.2 281.797L1348 283.575L1270.83 360.543H832.86L759.997 433.7Z" fill="white" fill-opacity="0.07"/>
<path d="M718.638 395.724L718 393.965L773.544 339.164H1095V341.175H773.864L718.638 395.724Z" fill="white" fill-opacity="0.07"/>
<circle cx="870.5" cy="204.5" r="2.5" fill="white" fill-opacity="0.07"/>
<circle cx="1097.5" cy="340" r="2.5" fill="white" fill-opacity="0.07"/>
<circle cx="949.5" cy="308" r="2.5" fill="white" fill-opacity="0.07"/>
<circle cx="605.5" cy="240" r="2.5" fill="white" fill-opacity="0.07"/>
<circle cx="1348.5" cy="282" r="2.5" fill="white" fill-opacity="0.07"/>
<circle cx="1350.5" cy="334" r="2.5" fill="white" fill-opacity="0.07"/>
<circle cx="1307.5" cy="202" r="2.5" fill="white" fill-opacity="0.07"/>
<path d="M208 386H288" stroke="url(#paint0_linear_1_1059)" stroke-opacity="0.4" stroke-width="2"/>
<path d="M160 386H80" stroke="url(#paint1_linear_1_1059)" stroke-opacity="0.4" stroke-width="2"/>
<g filter="url(#filter1_b_1_1059)">
<rect x="160" y="361" width="48" height="48" rx="8" fill="#090909" fill-opacity="0.16"/>
<rect x="160.75" y="361.75" width="46.5" height="46.5" rx="7.25" stroke="url(#paint2_linear_1_1059)" stroke-opacity="0.44" stroke-width="1.5"/>
</g>
<g clip-path="url(#clip0_1_1059)">
<path d="M185 376V395" stroke="#4CCD99" stroke-opacity="0.5" stroke-width="1.5" stroke-linecap="round" stroke-linejoin="round"/>
<path d="M191 384.227C191 387.5 189.188 388.997 185 393.5C180.812 388.997 179 387.5 179 384.227C179 379.773 182.071 377.3 185 375C187.929 377.3 191 379.773 191 384.227Z" stroke="#4CCD99" stroke-opacity="0.5" stroke-width="1.5" stroke-linecap="round" stroke-linejoin="round"/>
</g>
<path d="M1144 491H1224" stroke="url(#paint3_linear_1_1059)" stroke-opacity="0.4" stroke-width="2"/>
<path d="M1096 491H1016" stroke="url(#paint4_linear_1_1059)" stroke-opacity="0.4" stroke-width="2"/>
<g filter="url(#filter2_b_1_1059)">
<rect x="1096" y="466" width="48" height="48" rx="8" fill="#090909" fill-opacity="0.16"/>
<rect x="1096.75" y="466.75" width="46.5" height="46.5" rx="7.25" stroke="url(#paint5_linear_1_1059)" stroke-opacity="0.44" stroke-width="1.5"/>
</g>
<g clip-path="url(#clip1_1_1059)">
<path d="M1121 499C1119.57 497.974 1117.41 495.146 1117 493C1116.51 493.77 1115.5 495 1115 495C1113.5 494.112 1114.43 491.027 1115 489C1113.4 487.567 1112.53 486.542 1112.5 485C1109.15 481.56 1112.06 479.73 1115 482H1116C1124.48 482.5 1122.42 490.07 1125 493.5C1127.3 494.022 1128.67 495.754 1130 497C1127.91 496.8 1127.22 496.656 1126.5 497C1126.98 498.64 1128.62 499.2 1130 500" stroke="#4CCD99" stroke-opacity="0.5" stroke-width="1.5" stroke-linecap="round" stroke-linejoin="round"/>
<path d="M1117 485H1117.01" stroke="#4CCD99" stroke-opacity="0.5" stroke-linecap="round" stroke-linejoin="round"/>
</g>
<path d="M1282 401.426L1324.43 359" stroke="url(#paint6_linear_1_1059)" stroke-opacity="0.4" stroke-width="2"/>
<path d="M1243 401H1183" stroke="url(#paint7_linear_1_1059)" stroke-opacity="0.4" stroke-width="2"/>
<g filter="url(#filter3_b_1_1059)">
<rect x="1243" y="381" width="40" height="40" rx="8" fill="#090909" fill-opacity="0.16"/>
<rect x="1243.75" y="381.75" width="38.5" height="38.5" rx="7.25" stroke="url(#paint8_linear_1_1059)" stroke-opacity="0.44" stroke-width="1.5"/>
</g>
<g clip-path="url(#clip2_1_1059)">
<path d="M1270.5 402.667L1263 408.5L1255.5 402.667L1258 393.5L1260.5 399.333H1265.5L1268 393.5L1270.5 402.667Z" stroke="#FFF455" stroke-opacity="0.5" stroke-width="1.5" stroke-linecap="round" stroke-linejoin="round"/>
</g>
<path d="M385 531L428.426 574.426" stroke="url(#paint9_linear_1_1059)" stroke-opacity="0.4" stroke-width="2"/>
<path d="M346 531H286" stroke="url(#paint10_linear_1_1059)" stroke-opacity="0.4" stroke-width="2"/>
<g filter="url(#filter4_b_1_1059)">
<rect x="346" y="511" width="40" height="40" rx="8" fill="#090909" fill-opacity="0.16"/>
<rect x="346.75" y="511.75" width="38.5" height="38.5" rx="7.25" stroke="url(#paint11_linear_1_1059)" stroke-opacity="0.44" stroke-width="1.5"/>
</g>
<g clip-path="url(#clip3_1_1059)">
<path d="M363.5 536.833C359.917 538 359.917 534.75 358.5 534.333M368.5 538.5V535.583C368.5 534.75 368.583 534.417 368.083 533.917C370.417 533.667 372.667 532.75 372.667 528.917C372.666 527.921 372.277 526.964 371.583 526.25C371.909 525.385 371.879 524.426 371.5 523.583C371.5 523.583 370.583 523.333 368.583 524.667C366.889 524.225 365.111 524.225 363.417 524.667C361.417 523.333 360.5 523.583 360.5 523.583C360.121 524.426 360.091 525.385 360.417 526.25C359.723 526.964 359.334 527.921 359.333 528.917C359.333 532.75 361.583 533.667 363.917 533.917C363.417 534.417 363.417 534.917 363.5 535.583V538.5" stroke="#FFF455" stroke-opacity="0.5" stroke-width="1.5" stroke-linecap="round" stroke-linejoin="round"/>
</g>
<defs>
<filter id="filter0_f_1_1059" x="128.447" y="-175.554" width="1182.17" height="1182.17" filterUnits="userSpaceOnUse" color-interpolation-filters="sRGB">
<feFlood flood-opacity="0" result="BackgroundImageFix"/>
<feBlend mode="normal" in="SourceGraphic" in2="BackgroundImageFix" result="shape"/>
<feGaussianBlur stdDeviation="160" result="effect1_foregroundBlur_1_1059"/>
</filter>
<filter id="filter1_b_1_1059" x="152" y="353" width="64" height="64" filterUnits="userSpaceOnUse" color-interpolation-filters="sRGB">
<feFlood flood-opacity="0" result="BackgroundImageFix"/>
<feGaussianBlur in="BackgroundImageFix" stdDeviation="4"/>
<feComposite in2="SourceAlpha" operator="in" result="effect1_backgroundBlur_1_1059"/>
<feBlend mode="normal" in="SourceGraphic" in2="effect1_backgroundBlur_1_1059" result="shape"/>
</filter>
<filter id="filter2_b_1_1059" x="1088" y="458" width="64" height="64" filterUnits="userSpaceOnUse" color-interpolation-filters="sRGB">
<feFlood flood-opacity="0" result="BackgroundImageFix"/>
<feGaussianBlur in="BackgroundImageFix" stdDeviation="4"/>
<feComposite in2="SourceAlpha" operator="in" result="effect1_backgroundBlur_1_1059"/>
<feBlend mode="normal" in="SourceGraphic" in2="effect1_backgroundBlur_1_1059" result="shape"/>
</filter>
<filter id="filter3_b_1_1059" x="1235" y="373" width="56" height="56" filterUnits="userSpaceOnUse" color-interpolation-filters="sRGB">
<feFlood flood-opacity="0" result="BackgroundImageFix"/>
<feGaussianBlur in="BackgroundImageFix" stdDeviation="4"/>
<feComposite in2="SourceAlpha" operator="in" result="effect1_backgroundBlur_1_1059"/>
<feBlend mode="normal" in="SourceGraphic" in2="effect1_backgroundBlur_1_1059" result="shape"/>
</filter>
<filter id="filter4_b_1_1059" x="338" y="503" width="56" height="56" filterUnits="userSpaceOnUse" color-interpolation-filters="sRGB">
<feFlood flood-opacity="0" result="BackgroundImageFix"/>
<feGaussianBlur in="BackgroundImageFix" stdDeviation="4"/>
<feComposite in2="SourceAlpha" operator="in" result="effect1_backgroundBlur_1_1059"/>
<feBlend mode="normal" in="SourceGraphic" in2="effect1_backgroundBlur_1_1059" result="shape"/>
</filter>
<linearGradient id="paint0_linear_1_1059" x1="208" y1="386.5" x2="288" y2="386.5" gradientUnits="userSpaceOnUse">
<stop stop-color="#FFF455" stop-opacity="0.8"/>
<stop offset="1" stop-color="#FFF455" stop-opacity="0"/>
</linearGradient>
<linearGradient id="paint1_linear_1_1059" x1="160" y1="386.5" x2="80" y2="386.5" gradientUnits="userSpaceOnUse">
<stop stop-color="#4CCD99" stop-opacity="0.8"/>
<stop offset="1" stop-color="#4CCD99" stop-opacity="0"/>
</linearGradient>
<linearGradient id="paint2_linear_1_1059" x1="160" y1="385" x2="208" y2="385" gradientUnits="userSpaceOnUse">
<stop stop-color="#4CCD99"/>
<stop offset="1" stop-color="#FFF455"/>
</linearGradient>
<linearGradient id="paint3_linear_1_1059" x1="1144" y1="491.5" x2="1224" y2="491.5" gradientUnits="userSpaceOnUse">
<stop stop-color="#FFF455" stop-opacity="0.8"/>
<stop offset="1" stop-color="#FFF455" stop-opacity="0"/>
</linearGradient>
<linearGradient id="paint4_linear_1_1059" x1="1096" y1="491.5" x2="1016" y2="491.5" gradientUnits="userSpaceOnUse">
<stop stop-color="#4CCD99" stop-opacity="0.8"/>
<stop offset="1" stop-color="#4CCD99" stop-opacity="0"/>
</linearGradient>
<linearGradient id="paint5_linear_1_1059" x1="1096" y1="490" x2="1144" y2="490" gradientUnits="userSpaceOnUse">
<stop stop-color="#4CCD99"/>
<stop offset="1" stop-color="#FFF455"/>
</linearGradient>
<linearGradient id="paint6_linear_1_1059" x1="1282.35" y1="401.78" x2="1324.78" y2="359.354" gradientUnits="userSpaceOnUse">
<stop stop-color="#FFF455" stop-opacity="0.8"/>
<stop offset="1" stop-color="#FFF455" stop-opacity="0"/>
</linearGradient>
<linearGradient id="paint7_linear_1_1059" x1="1243" y1="401.5" x2="1183" y2="401.5" gradientUnits="userSpaceOnUse">
<stop stop-color="#4CCD99" stop-opacity="0.8"/>
<stop offset="1" stop-color="#4CCD99" stop-opacity="0"/>
</linearGradient>
<linearGradient id="paint8_linear_1_1059" x1="1243" y1="401" x2="1283" y2="401" gradientUnits="userSpaceOnUse">
<stop stop-color="#4CCD99"/>
<stop offset="1" stop-color="#FFF455"/>
</linearGradient>
<linearGradient id="paint9_linear_1_1059" x1="384.646" y1="531.354" x2="428.073" y2="574.78" gradientUnits="userSpaceOnUse">
<stop stop-color="#FFF455" stop-opacity="0.8"/>
<stop offset="1" stop-color="#FFF455" stop-opacity="0"/>
</linearGradient>
<linearGradient id="paint10_linear_1_1059" x1="346" y1="531.5" x2="286" y2="531.5" gradientUnits="userSpaceOnUse">
<stop stop-color="#4CCD99" stop-opacity="0.8"/>
<stop offset="1" stop-color="#4CCD99" stop-opacity="0"/>
</linearGradient>
<linearGradient id="paint11_linear_1_1059" x1="346" y1="531" x2="386" y2="531" gradientUnits="userSpaceOnUse">
<stop stop-color="#4CCD99"/>
<stop offset="1" stop-color="#FFF455"/>
</linearGradient>
<clipPath id="clip0_1_1059">
<rect width="24" height="24" fill="white" transform="translate(173 373)"/>
</clipPath>
<clipPath id="clip1_1_1059">
<rect width="24" height="24" fill="white" transform="translate(1108 478)"/>
</clipPath>
<clipPath id="clip2_1_1059">
<rect width="20" height="20" fill="white" transform="translate(1253 391)"/>
</clipPath>
<clipPath id="clip3_1_1059">
<rect width="20" height="20" fill="white" transform="translate(356 521)"/>
</clipPath>
</defs>
</svg>
