<svg width="573" height="512" viewBox="0 0 573 512" fill="none" xmlns="http://www.w3.org/2000/svg">
<path d="M123.5 0L-254.099 0C-293.824 0 -326 34.2873 -326 76.6196V479C-326 743.529 -124.738 958 123.5 958C371.138 958 573 742.891 573 479C573 214.471 371.738 0 123.5 0ZM123.5 670.613C24.2169 670.613 -56.312 584.863 -56.312 479V325.697C-56.312 304.563 -40.1942 287.387 -20.3616 287.387L123.5 287.387C222.783 287.387 303.312 373.137 303.312 479C303.312 584.544 222.543 670.613 123.5 670.613Z" fill="#F7F7F7" fill-opacity="0.1"/>
</svg>
